# xmcd CD database file
#
# Track frame offsets:
#	150
#	14002
#	31660
#	47007
#	60862
#	75440
#	87895
#	101150
#	114322
#	130212
#
# Disc length: 1994 seconds
#
# Revision: 9
# Processed by: cddbd v1.5.2PL0 Copyright (c) Steve Scherf et al.
# Submitted via: CDex 1.79
#
DISCID=6e07c80a
DTITLE=Doug Stone - More Love
DYEAR=1993
DGENRE=Country
TTITLE0=Addicted To A Dollar
TTITLE1=She Used To Love Me A Lot
TTITLE2=More Love
TTITLE3=Little Sister`s Blue Jeans
TTITLE4=Small Steps
TTITLE5=Wishbone
TTITLE6=That`s A Lie
TTITLE7=Love, You Took Me By Surprise
TTITLE8=I Never Knew Love
TTITLE9=Dream High
EXTD=YEAR: 1993
EXTT0=
EXTT1=
EXTT2=
EXTT3=
EXTT4=
EXTT5=
EXTT6=
EXTT7=
EXTT8=
EXTT9=
PLAYORDER=
